# xmcd
#
# Track frame offsets:
#	150
#	2873
#	21431
#	38831
#	39321
#	55221
#	69473
#	86370
#	103133
#	103759
#	115266
#	127646
#	141863
#	159213
#	174010
#	186754
#	187054
#	201345
#	217735
#	237997
#	249828
#
# Disc length: 3341 seconds
# Revision: 0
# Processed by: cddbd v1.5.2PL0 Copyright (c) Steve Scherf et al.
# Submitted via: dBpowerAMP V12.0
#
DISCID=120d0b15
DTITLE=Virgis Stakenas - Radiolabas
DYEAR=2006
DGENRE=Country
TTITLE0=Labas is Nju Meksiko (intro)
TTITLE1=Erelio brolis
TTITLE2=Chuanita
TTITLE3=Radijo trukdziai (inter)
TTITLE4=Skriski Lietuvelen
TTITLE5=Traku pilis
TTITLE6=Mazas zmogus
TTITLE7=Staselis
TTITLE8=Radijo trukdziai 2 (inter)
TTITLE9=Letkis LT
TTITLE10=Dar, tiktai dar
TTITLE11=Dede Jeronimas
TTITLE12=Gegutele
TTITLE13=Ka du man darai
TTITLE14=Sekretore
TTITLE15=Vaziuojam toliau (inter) (bonus)
TTITLE16=Kelio vyrai (bonus)
TTITLE17=Kaledu magija (bonus)
TTITLE18=Hello! (...is Vijoliu) (bonus)
TTITLE19=Uzdaryk duris (fin) (bonus)
TTITLE20=DATA
EXTD=
EXTT0=
EXTT1=
EXTT2=
EXTT3=
EXTT4=
EXTT5=
EXTT6=
EXTT7=
EXTT8=
EXTT9=
EXTT10=
EXTT11=
EXTT12=
EXTT13=
EXTT14=
EXTT15=
EXTT16=
EXTT17=
EXTT18=
EXTT19=
EXTT20=
PLAYORDER=
